<svg width="40" height="40" viewBox="0 0 40 40" fill="none" xmlns="http://www.w3.org/2000/svg">
<g clip-path="url(#clip0_32_27)">
<path d="M9.64096 0.0911378C9.28473 0.141798 8.82672 0.243118 8.62316 0.301016C8.42687 0.36615 8.14334 0.445759 8.00521 0.489182C7.08918 0.764195 5.85328 1.38659 4.85002 2.07412C3.80314 2.7906 2.32732 4.35383 1.79661 5.29466C1.73118 5.41046 1.59305 5.64205 1.49854 5.80127C1.22955 6.2355 0.916938 6.90855 0.669757 7.57437C0.488007 8.07374 0.131776 9.3909 0.175396 9.42709C0.189936 9.4488 0.160856 9.6442 0.109966 9.87579C-0.0354346 10.4837 -0.0354346 29.0543 0.109966 29.6622C0.160856 29.8938 0.189936 30.0892 0.175396 30.1109C0.0954258 30.1905 0.851508 32.6222 0.975098 32.6729C1.00418 32.6874 1.02599 32.738 1.02599 32.7814C1.02599 32.8755 1.39676 33.6427 1.46946 33.7006C1.49127 33.7223 1.53489 33.8091 1.56397 33.896C1.59305 33.99 1.65121 34.0624 1.68756 34.0624C1.72391 34.0624 1.75299 34.1058 1.75299 34.1493C1.75299 34.1999 1.93474 34.4822 2.15284 34.7717C2.37094 35.0611 2.55269 35.3144 2.55269 35.3362C2.55269 35.3941 4.42836 37.254 4.7337 37.4928C5.70788 38.2744 7.1328 39.0344 8.38325 39.4396C9.13206 39.6857 9.43013 39.7581 10.3607 39.9245C10.9714 40.0258 29.3718 40.0258 30.0261 39.9173C32.0181 39.5916 33.8138 38.8607 35.2678 37.7823C36.3437 36.9862 37.8123 35.4158 38.2121 34.6414C38.2848 34.5039 38.3648 34.3736 38.3866 34.3519C38.4084 34.3302 38.4811 34.2144 38.5466 34.0986C38.6047 33.9756 38.721 33.7512 38.8083 33.592C39.0046 33.2157 39.1209 32.9407 39.3608 32.2893C39.5207 31.8551 39.8552 30.5958 39.8334 30.4945C39.8261 30.4511 39.8624 30.234 39.9061 30.0241C40.0296 29.4741 40.0296 10.86 39.9061 10.31C39.8624 10.1001 39.8261 9.90474 39.8334 9.86855C39.8552 9.78895 39.5716 8.6889 39.3972 8.18953C39.1863 7.57437 39.1791 7.54542 38.7647 6.70591C38.3575 5.88811 38.263 5.71442 38.1249 5.56244C38.074 5.51178 38.0304 5.43941 38.0304 5.41046C38.0304 5.38151 37.9722 5.29466 37.8995 5.21505C37.8268 5.14268 37.696 4.96175 37.6015 4.82425C37.2816 4.36107 35.3114 2.47217 34.6862 2.03794C34.0173 1.56752 34.0028 1.56028 33.0868 1.0971C32.3234 0.706297 31.5819 0.452996 30.3242 0.141798C29.9025 0.0332404 28.8193 0.0187661 20.0734 0.00429172C11.9601 -0.0101826 10.1862 0.00429172 9.64096 0.0911378ZM29.6699 3.2972C29.8516 3.34063 30.1279 3.42024 30.2878 3.45642C31.3929 3.74591 32.796 4.53476 33.7702 5.4177C34.3445 5.93153 35.2823 7.03158 35.4277 7.35726C35.4786 7.47305 35.544 7.57437 35.5731 7.57437C35.6095 7.57437 35.6313 7.61779 35.6313 7.67569C35.6313 7.73359 35.6749 7.82767 35.7258 7.87833C35.7694 7.92899 35.893 8.15335 35.9875 8.37046C36.082 8.58758 36.1983 8.85535 36.2565 8.95667C36.3074 9.05799 36.3365 9.16655 36.3147 9.18102C36.2929 9.20274 36.3292 9.333 36.3874 9.46327C36.5255 9.80342 36.6345 10.3173 36.7218 11.0844C36.8163 11.9673 36.8163 28.4536 36.7218 29.3221C36.6491 29.9517 36.6127 30.1254 36.4237 30.8057C36.3728 30.9866 36.3292 31.1603 36.3147 31.2037C36.3074 31.2399 36.2202 31.4643 36.1111 31.6886C36.0093 31.913 35.8857 32.1735 35.8494 32.2676C35.813 32.3617 35.7331 32.4992 35.6894 32.5716C35.6386 32.6512 35.4859 32.8972 35.3478 33.1143C34.8897 33.8525 33.9156 34.8296 33.0868 35.3868C32.4543 35.8066 31.3929 36.3132 30.8694 36.4434C30.6731 36.4941 30.3896 36.5592 30.2515 36.5954C29.5172 36.7836 28.3104 36.8125 20.2188 36.8125C12.0837 36.8125 10.9278 36.7836 10.1135 36.5882C9.02301 36.3277 7.72168 35.727 6.94378 35.1335C6.19497 34.5473 4.5156 32.7453 4.5156 32.5137C4.5156 32.492 4.42836 32.3327 4.32658 32.1663C4.1521 31.8913 3.72317 30.9504 3.68682 30.7695C3.67955 30.7261 3.63593 30.5958 3.59231 30.48C3.47598 30.1688 3.35966 29.5681 3.27969 28.8517C3.23607 28.4826 3.20699 24.8567 3.20699 19.7328C3.21426 10.8528 3.2288 10.3462 3.52687 9.31129C3.59231 9.09418 3.65774 8.86259 3.67228 8.80469C3.73771 8.55863 4.18118 7.60332 4.34112 7.34278C4.43563 7.19804 4.5156 7.0533 4.5156 7.03158C4.5156 6.92303 5.17717 6.10523 5.67153 5.59862C6.99467 4.25251 8.95758 3.32615 10.7315 3.21036C10.935 3.19588 15.2025 3.18865 20.2188 3.19588C27.2417 3.20312 29.4154 3.22483 29.6699 3.2972Z" fill="white"/>
<path d="M29.7425 6.65529C28.9065 6.89412 28.2522 7.43691 27.8887 8.18957C27.7069 8.57314 27.6851 8.70341 27.6779 9.31133C27.6779 9.92649 27.6997 10.0495 27.8887 10.4331C28.1577 10.9904 28.7175 11.5404 29.27 11.8082C29.6626 11.9963 29.7789 12.018 30.4332 12.0108C31.0802 12.0108 31.2038 11.9891 31.5964 11.8009C32.1126 11.5549 32.6215 11.0772 32.9123 10.5706C32.9632 10.491 33.0577 10.187 33.1231 9.89754C33.283 9.25344 33.2103 8.72512 32.8687 8.03035C32.4688 7.21979 31.5673 6.64805 30.6077 6.59016C30.2878 6.57568 29.9388 6.59739 29.7425 6.65529Z" fill="white"/>
<path d="M18.2923 9.75271C16.4021 10.1942 15.4861 10.5633 14.1847 11.439C13.5159 11.8804 12.0764 13.2989 11.633 13.943C11.4585 14.2036 11.2913 14.4279 11.2695 14.4496C11.015 14.674 10.0481 16.9754 10.0408 17.3807C10.0408 17.4603 9.98995 17.6557 9.93906 17.8149C9.8082 18.184 9.78639 18.64 9.79366 20.3117C9.80093 21.6361 9.81547 21.7085 10.1281 22.8809C10.6879 24.958 12.0256 26.8976 13.8721 28.2799C14.6282 28.8444 15.7769 29.4595 16.5475 29.7128C16.831 29.8069 17.1291 29.9082 17.2236 29.9444C17.8125 30.1688 18.5613 30.2556 20.0008 30.2556C21.4402 30.2556 22.189 30.1688 22.7779 29.9444C22.8724 29.9082 23.1778 29.8069 23.454 29.7128C25.3079 29.1049 27.2999 27.5706 28.4921 25.8265C29.161 24.8422 29.5899 23.9303 29.8735 22.8809C30.1861 21.7085 30.2006 21.6361 30.2079 20.3117C30.2151 18.64 30.1933 18.184 30.0625 17.8149C30.0116 17.6557 29.9607 17.4603 29.9607 17.3807C29.9534 16.9754 28.9865 14.674 28.7321 14.4496C28.7102 14.4279 28.543 14.2036 28.3686 13.943C28.1868 13.6825 27.6634 13.0963 27.2054 12.6403C25.6205 11.0626 24.0938 10.2593 21.8183 9.78889C21.2076 9.65863 18.8012 9.63691 18.2923 9.75271ZM21.0331 12.9298C21.2439 12.9733 21.6002 13.0384 21.8183 13.089C23.0542 13.3351 25.2206 14.8043 25.6205 15.6582C25.6641 15.7523 25.7223 15.8247 25.7586 15.8247C25.7877 15.8247 25.8168 15.8754 25.8168 15.9333C25.8168 15.9912 25.8459 16.0418 25.8749 16.0418C25.9549 16.0418 26.6019 17.33 26.6456 17.5761C26.6528 17.6268 26.7037 17.8077 26.7473 17.9741C26.7982 18.1478 26.8709 18.4228 26.9146 18.5821C27.089 19.2406 26.9654 21.6651 26.7401 22.027C26.7183 22.0631 26.6819 22.1717 26.6674 22.273C26.6238 22.4974 26.1657 23.525 26.093 23.554C26.064 23.5685 26.0349 23.6191 26.0349 23.6698C26.0349 23.7204 25.9695 23.8435 25.8822 23.9376C25.8022 24.0316 25.6859 24.1909 25.635 24.2922C25.5332 24.4804 24.3919 25.5876 24.0284 25.8554C23.6212 26.1449 22.6325 26.6153 22.0364 26.8107C21.5129 26.9772 20.815 27.064 20.0008 27.064C19.1865 27.064 18.4886 26.9772 17.9652 26.8107C17.369 26.6153 16.3803 26.1449 15.9732 25.8554C15.6097 25.5876 14.4683 24.4804 14.3665 24.2922C14.3156 24.1909 14.1993 24.0316 14.1193 23.9376C14.0321 23.8435 13.9666 23.7204 13.9666 23.6698C13.9666 23.6191 13.9376 23.5685 13.9085 23.554C13.8358 23.525 13.3778 22.4974 13.3342 22.273C13.3196 22.1717 13.2833 22.0631 13.2615 22.027C13.0361 21.6651 12.9125 19.2406 13.087 18.5821C13.1306 18.4228 13.2033 18.1478 13.2542 17.9741C13.2978 17.8077 13.3487 17.6268 13.356 17.5761C13.3996 17.33 14.0466 16.0418 14.1266 16.0418C14.1557 16.0418 14.1847 15.9912 14.1847 15.9333C14.1847 15.8754 14.2138 15.8247 14.2429 15.8247C14.2793 15.8247 14.3374 15.7523 14.381 15.6582C14.7809 14.8043 16.9401 13.3423 18.1833 13.0818C18.4014 13.0384 18.7285 12.9733 18.9103 12.9371C19.3683 12.8502 20.5751 12.843 21.0331 12.9298Z" fill="white"/>
</g>
<defs>
<clipPath id="clip0_32_27">
<rect width="40" height="40" fill="white"/>
</clipPath>
</defs>
</svg>
