<svg width="195" height="94" viewBox="0 0 195 94" fill="none" xmlns="http://www.w3.org/2000/svg">
<path d="M96.8324 22L39 54.1081L96.8324 88L154 54.1081L96.8324 22Z" fill="white"/>
<path d="M62.562 33.22H63.624L68.934 46H67.602L65.946 42.004H60.204L58.566 46H57.216L62.562 33.22ZM65.658 41.014L63.084 34.696L60.474 41.014H65.658ZM70.5681 32.86H71.7921V43.876C71.7921 44.344 71.8761 44.65 72.0441 44.794C72.2121 44.938 72.4161 45.01 72.6561 45.01C72.8721 45.01 73.0881 44.986 73.3041 44.938C73.5201 44.89 73.7061 44.842 73.8621 44.794L74.0781 45.784C73.8501 45.88 73.5681 45.958 73.2321 46.018C72.9081 46.078 72.6261 46.108 72.3861 46.108C71.8341 46.108 71.3901 45.946 71.0541 45.622C70.7301 45.298 70.5681 44.854 70.5681 44.29V32.86ZM79.4684 46.18C78.7964 46.18 78.1724 46.054 77.5964 45.802C77.0204 45.538 76.5224 45.184 76.1024 44.74C75.6824 44.284 75.3524 43.762 75.1124 43.174C74.8844 42.586 74.7704 41.956 74.7704 41.284C74.7704 40.408 74.9684 39.604 75.3644 38.872C75.7724 38.14 76.3304 37.558 77.0384 37.126C77.7464 36.682 78.5504 36.46 79.4504 36.46C80.3744 36.46 81.1784 36.682 81.8624 37.126C82.5584 37.57 83.1044 38.158 83.5004 38.89C83.8964 39.61 84.0944 40.402 84.0944 41.266C84.0944 41.362 84.0944 41.458 84.0944 41.554C84.0944 41.638 84.0884 41.704 84.0764 41.752H76.0484C76.1084 42.424 76.2944 43.024 76.6064 43.552C76.9304 44.068 77.3444 44.482 77.8484 44.794C78.3644 45.094 78.9224 45.244 79.5224 45.244C80.1344 45.244 80.7104 45.088 81.2504 44.776C81.8024 44.464 82.1864 44.056 82.4024 43.552L83.4644 43.84C83.2724 44.284 82.9784 44.686 82.5824 45.046C82.1864 45.406 81.7184 45.688 81.1784 45.892C80.6504 46.084 80.0804 46.18 79.4684 46.18ZM76.0124 40.87H82.9424C82.8944 40.186 82.7084 39.586 82.3844 39.07C82.0724 38.554 81.6584 38.152 81.1424 37.864C80.6384 37.564 80.0804 37.414 79.4684 37.414C78.8564 37.414 78.2984 37.564 77.7944 37.864C77.2904 38.152 76.8764 38.56 76.5524 39.088C76.2404 39.604 76.0604 40.198 76.0124 40.87ZM84.5788 49.258C84.1828 49.258 83.8108 49.204 83.4628 49.096C83.1028 48.988 82.7908 48.808 82.5268 48.556L83.1208 47.728C83.3008 47.896 83.5108 48.01 83.7508 48.07C83.9788 48.13 84.2068 48.16 84.4348 48.16C84.7228 48.16 84.9928 48.088 85.2448 47.944C85.4968 47.8 85.7008 47.596 85.8568 47.332C86.0248 47.08 86.1088 46.798 86.1088 46.486V36.622H87.3328V46.414C87.3328 46.966 87.2008 47.458 86.9368 47.89C86.6728 48.322 86.3308 48.658 85.9108 48.898C85.4908 49.138 85.0468 49.258 84.5788 49.258ZM86.1088 34.66V32.86H87.3328V34.66H86.1088ZM89.2698 43.3C89.2698 42.712 89.4378 42.208 89.7738 41.788C90.1098 41.356 90.5718 41.026 91.1598 40.798C91.7598 40.558 92.4498 40.438 93.2298 40.438C93.6858 40.438 94.1598 40.474 94.6518 40.546C95.1438 40.618 95.5818 40.726 95.9658 40.87V40.078C95.9658 39.286 95.7318 38.656 95.2638 38.188C94.7958 37.72 94.1478 37.486 93.3198 37.486C92.8158 37.486 92.3178 37.582 91.8258 37.774C91.3458 37.954 90.8418 38.224 90.3138 38.584L89.8458 37.72C90.4578 37.3 91.0578 36.988 91.6458 36.784C92.2338 36.568 92.8338 36.46 93.4458 36.46C94.5978 36.46 95.5098 36.79 96.1818 37.45C96.8538 38.11 97.1898 39.022 97.1898 40.186V44.524C97.1898 44.692 97.2258 44.818 97.2978 44.902C97.3698 44.974 97.4838 45.016 97.6398 45.028V46C97.5078 46.012 97.3938 46.024 97.2978 46.036C97.2018 46.048 97.1298 46.048 97.0818 46.036C96.7818 46.024 96.5538 45.928 96.3978 45.748C96.2418 45.568 96.1578 45.376 96.1458 45.172L96.1278 44.488C95.7078 45.028 95.1618 45.448 94.4898 45.748C93.8178 46.036 93.1338 46.18 92.4378 46.18C91.8378 46.18 91.2918 46.054 90.7998 45.802C90.3198 45.538 89.9418 45.19 89.6658 44.758C89.4018 44.314 89.2698 43.828 89.2698 43.3ZM95.5518 44.02C95.6838 43.852 95.7858 43.69 95.8578 43.534C95.9298 43.378 95.9658 43.24 95.9658 43.12V41.752C95.5578 41.596 95.1318 41.476 94.6878 41.392C94.2558 41.308 93.8178 41.266 93.3738 41.266C92.4978 41.266 91.7898 41.44 91.2498 41.788C90.7098 42.136 90.4398 42.61 90.4398 43.21C90.4398 43.558 90.5298 43.888 90.7098 44.2C90.8898 44.5 91.1538 44.752 91.5018 44.956C91.8498 45.148 92.2578 45.244 92.7258 45.244C93.3138 45.244 93.8598 45.13 94.3638 44.902C94.8798 44.674 95.2758 44.38 95.5518 44.02ZM107.718 46H106.494V40.762C106.494 39.658 106.332 38.854 106.008 38.35C105.684 37.834 105.174 37.576 104.478 37.576C103.998 37.576 103.524 37.696 103.056 37.936C102.588 38.164 102.174 38.482 101.814 38.89C101.466 39.286 101.214 39.742 101.058 40.258V46H99.8344V36.622H100.95V38.746C101.202 38.29 101.532 37.894 101.94 37.558C102.348 37.21 102.81 36.94 103.326 36.748C103.842 36.556 104.376 36.46 104.928 36.46C105.444 36.46 105.882 36.556 106.242 36.748C106.602 36.94 106.89 37.216 107.106 37.576C107.322 37.924 107.478 38.35 107.574 38.854C107.67 39.346 107.718 39.898 107.718 40.51V46ZM109.699 41.338C109.699 40.45 109.879 39.64 110.239 38.908C110.611 38.164 111.121 37.57 111.769 37.126C112.417 36.682 113.155 36.46 113.983 36.46C114.763 36.46 115.459 36.67 116.071 37.09C116.695 37.498 117.181 37.996 117.529 38.584V32.86H118.753V44.524C118.753 44.692 118.789 44.818 118.861 44.902C118.933 44.974 119.041 45.016 119.185 45.028V46C118.945 46.036 118.759 46.048 118.627 46.036C118.375 46.024 118.153 45.922 117.961 45.73C117.769 45.538 117.673 45.328 117.673 45.1V44.182C117.301 44.794 116.797 45.28 116.161 45.64C115.525 46 114.865 46.18 114.181 46.18C113.533 46.18 112.933 46.048 112.381 45.784C111.841 45.52 111.367 45.16 110.959 44.704C110.563 44.248 110.251 43.732 110.023 43.156C109.807 42.568 109.699 41.962 109.699 41.338ZM117.529 42.778V39.88C117.373 39.448 117.121 39.058 116.773 38.71C116.425 38.35 116.029 38.068 115.585 37.864C115.153 37.648 114.721 37.54 114.289 37.54C113.785 37.54 113.329 37.648 112.921 37.864C112.513 38.068 112.159 38.35 111.859 38.71C111.571 39.07 111.349 39.478 111.193 39.934C111.037 40.39 110.959 40.858 110.959 41.338C110.959 41.842 111.043 42.322 111.211 42.778C111.391 43.234 111.643 43.642 111.967 44.002C112.291 44.35 112.663 44.62 113.083 44.812C113.503 45.004 113.959 45.1 114.451 45.1C114.763 45.1 115.087 45.04 115.423 44.92C115.759 44.8 116.077 44.638 116.377 44.434C116.689 44.218 116.947 43.966 117.151 43.678C117.355 43.39 117.481 43.09 117.529 42.778ZM126.206 37.702C125.39 37.726 124.67 37.954 124.046 38.386C123.434 38.818 123.002 39.412 122.75 40.168V46H121.526V36.622H122.678V38.872C123.002 38.212 123.428 37.678 123.956 37.27C124.496 36.862 125.066 36.634 125.666 36.586C125.786 36.574 125.888 36.568 125.972 36.568C126.068 36.568 126.146 36.574 126.206 36.586V37.702ZM131.534 46.18C130.862 46.18 130.238 46.054 129.662 45.802C129.098 45.538 128.606 45.184 128.186 44.74C127.778 44.284 127.46 43.768 127.232 43.192C127.004 42.604 126.89 41.986 126.89 41.338C126.89 40.666 127.004 40.042 127.232 39.466C127.46 38.878 127.784 38.362 128.204 37.918C128.624 37.462 129.116 37.108 129.68 36.856C130.256 36.592 130.88 36.46 131.552 36.46C132.224 36.46 132.842 36.592 133.406 36.856C133.97 37.108 134.462 37.462 134.882 37.918C135.302 38.362 135.626 38.878 135.854 39.466C136.082 40.042 136.196 40.666 136.196 41.338C136.196 41.986 136.082 42.604 135.854 43.192C135.626 43.768 135.302 44.284 134.882 44.74C134.474 45.184 133.982 45.538 133.406 45.802C132.842 46.054 132.218 46.18 131.534 46.18ZM128.132 41.356C128.132 42.052 128.282 42.688 128.582 43.264C128.894 43.828 129.308 44.278 129.824 44.614C130.34 44.938 130.91 45.1 131.534 45.1C132.158 45.1 132.728 44.932 133.244 44.596C133.76 44.26 134.174 43.804 134.486 43.228C134.798 42.64 134.954 42.004 134.954 41.32C134.954 40.624 134.798 39.988 134.486 39.412C134.174 38.836 133.76 38.38 133.244 38.044C132.728 37.708 132.158 37.54 131.534 37.54C130.91 37.54 130.34 37.714 129.824 38.062C129.32 38.41 128.912 38.872 128.6 39.448C128.288 40.012 128.132 40.648 128.132 41.356Z" fill="#0892E8"/>
<path d="M48.6641 55.0781C50.041 55.0781 51.2715 55.376 52.3555 55.9717C53.4492 56.5576 54.3037 57.3779 54.9189 58.4326C55.5342 59.4775 55.8418 60.6592 55.8418 61.9775C55.8418 63.3838 55.5391 64.624 54.9336 65.6982C54.3281 66.7725 53.4834 67.6074 52.3994 68.2031C51.3252 68.7891 50.0996 69.082 48.7227 69.082H44.6797V75H40.0361V55.0781H48.6641ZM48.4736 64.9658C48.9717 64.9658 49.4258 64.834 49.8359 64.5703C50.2559 64.3066 50.5879 63.9453 50.832 63.4863C51.0762 63.0273 51.1982 62.5244 51.1982 61.9775C51.1982 61.5186 51.0762 61.0742 50.832 60.6445C50.5879 60.2148 50.2559 59.8682 49.8359 59.6045C49.416 59.3408 48.9619 59.209 48.4736 59.209H44.6797V64.9658H48.4736ZM70.1826 75L68.8936 71.7627H60.5879L59.2988 75H54.3916L62.5654 55.0635H66.916L75.0898 75H70.1826ZM62.1113 67.9102H67.3701L64.8945 61.6846L64.7627 61.0693H64.7188L64.5869 61.6846L62.1113 67.9102ZM77.2139 55.0781H81.8574V70.8691H90.2217V75H77.2139V55.0781ZM92.8584 55.0781H96.9453L103.142 63.6475V63.6328L109.426 55.0781H113.469V75H108.84V62.4756L103.728 69.6387H102.556L97.502 62.4316V75H92.8584V55.0781ZM131.384 75L130.095 71.7627H121.789L120.5 75H115.593L123.767 55.0635H128.117L136.291 75H131.384ZM123.312 67.9102H128.571L126.096 61.6846L125.964 61.0693H125.92L125.788 61.6846L123.312 67.9102ZM147.16 55.0781C148.547 55.0781 149.787 55.3613 150.881 55.9277C151.975 56.4941 152.824 57.2852 153.43 58.3008C154.045 59.3164 154.353 60.4785 154.353 61.7871C154.353 63.125 154.011 64.3066 153.327 65.332C152.653 66.3477 151.735 67.1045 150.573 67.6025L154.821 75H149.504L146.018 68.335H145.124H143.059V75H138.415V55.0781H147.16ZM146.97 64.4531C147.478 64.4531 147.941 64.3408 148.361 64.1162C148.781 63.8818 149.108 63.5645 149.343 63.1641C149.587 62.7539 149.709 62.2949 149.709 61.7871C149.709 61.3281 149.587 60.9033 149.343 60.5127C149.099 60.1123 148.767 59.7949 148.347 59.5605C147.927 59.3262 147.468 59.209 146.97 59.209H143.059V64.4531H146.97Z" fill="#FD9A06"/>
<path d="M2.64 52.92L36.16 32.76V38.6L10.56 54.28L36.16 69.88V75.88L2.64 55.88V52.92Z" fill="#0892E8"/>
<path d="M191.92 55.88L158.4 75.88V69.88L184 54.28L158.4 38.6V32.76L191.92 52.92V55.88Z" fill="#0892E8"/>
</svg>
